# xmcd CD database file
#
# Track frame offsets:
#	150
#	11237
#	20647
#	32182
#	45932
#	59012
#	70915
#	86575
#	108605
#	126880
#	139082
#	157190
#	173685
#	187982
#
# Disc length: 2738 seconds
#
# Revision: 2
# Processed by: cddbd v1.5.1PL0 Copyright (c) Steve Scherf et al.
# Submitted via: CDex 1.51
#
DISCID=c40ab00e
DTITLE=Duke Ellington - Blues In Orbit
DYEAR=1959
DGENRE=Jazz
TTITLE0=Blues In Orbit
TTITLE1=Track 360
TTITLE2=Villes Ville is the place, man
TTITLE3=Brown Penny
TTITLE4=Three J's Blues
TTITLE5=Smada
TTITLE6=Pie Eye's Blues
TTITLE7=C Jam Blues
TTITLE8=Sweet and Pungent
TTITLE9=In A Mellotone
TTITLE10=Sentimental Lady
TTITLE11=Blues in Blueprint
TTITLE12=The Swingers Get The Blues, Too
TTITLE13=The Swinger's Jump
EXTD=YEAR: 1959
EXTT0=
EXTT1=
EXTT2=
EXTT3=
EXTT4=
EXTT5=
EXTT6=
EXTT7=
EXTT8=
EXTT9=
EXTT10=
EXTT11=
EXTT12=
EXTT13=
PLAYORDER=
